# xmcd
#
# Track frame offsets:
#	150
#	9818
#	19604
#	42243
#	53873
#	67444
#	82793
#	97085
#	110368
#	123577
#	137843
#	151030
#	159617
#	174159
#	184730
#	200266
#	214100
#	229229
#	245326
#	255092
#
# Disc length: 3650 seconds
#
# Revision: 0
# Processed by: cddbd v1.5.2PL0 Copyright (c) Steve Scherf et al.
# Submitted via: EZCDAudioConverter 3.1.0.1
#
DISCID=fe0e4014
DTITLE=Various Artist - Beginner's Guide to the Blues cd1 Deep
DYEAR=1900
DGENRE=
TTITLE0=Son House - Grinning in Your Face
TTITLE1=Mississippi Fred McDowell - Wish I Was in Heaven Sitting Down
TTITLE2=Robert Pete Williams - Free Again
TTITLE3=Johnny Shines - Ain't Doing No Good
TTITLE4=Bukka White - Shake Em' On Down
TTITLE5=Blind Willie Johnson - I'm Gonna Run to the City of Refuge
TTITLE6=Charley Patton - High Sheriff Blues
TTITLE7=Mississippi John Hurt - Stack O Lee
TTITLE8=Robert Johnson - I Believe I'll Dust My Broom
TTITLE9=Sleepy John Estes - Drop Down Mama
TTITLE10=Big Maceo - Worried Life Blues
TTITLE11=Lead Belly - Black Betty
TTITLE12=J.B. Lenoir - Alabama Blues
TTITLE13=Snooks Eaglin - St James Infirmary
TTITLE14=Odetta - Take This Hammer
TTITLE15=Arthur Crudup - My Baby Boogies All the Time
TTITLE16=Elmore James - Everyday I Have the Blues
TTITLE17=Memphis Slim - Stewball
TTITLE18=Blind Willie McTell - Don't Forget It
TTITLE19=Brownie McGhee and Sonny Terry - John Henry
EXTD=
EXTT0=
EXTT1=
EXTT2=
EXTT3=
EXTT4=
EXTT5=
EXTT6=
EXTT7=
EXTT8=
EXTT9=
EXTT10=
EXTT11=
EXTT12=
EXTT13=
EXTT14=
EXTT15=
EXTT16=
EXTT17=
EXTT18=
EXTT19=
PLAYORDER=
